<svg id="SvgjsSvg1104" width="360" height="360" xmlns="http://www.w3.org/2000/svg" version="1.1" xmlns:xlink="http://www.w3.org/1999/xlink" xmlns:svgjs="http://svgjs.com/svgjs"><defs id="SvgjsDefs1105"></defs><g id="SvgjsG1106" transform="matrix(1,0,0,1,0,0)"><svg xmlns="http://www.w3.org/2000/svg" xmlns:xlink="http://www.w3.org/1999/xlink" data-name="Layer 1" viewBox="0 0 446.16 597" width="360" height="360"><defs><linearGradient id="k" x1="150.47" x2="170.52" y1="304.46" y2="374.1" xlink:href="#d"></linearGradient><linearGradient id="e" x1="231.64" x2="634.69" y1="565.98" y2="565.98" gradientUnits="userSpaceOnUse"><stop offset="0" stop-color="#183866" class="stopColor183866 svgShape"></stop><stop offset="1" stop-color="#1a7fc1" class="stopColor1a7fc1 svgShape"></stop></linearGradient><linearGradient id="c" x1="243.43" x2="239.65" y1="657.71" y2="-733.69" gradientUnits="userSpaceOnUse"><stop offset="0" stop-color="#000000" class="stopColor000000 svgShape"></stop><stop offset=".14" stop-opacity=".49" stop-color="#000000" class="stopColor000000 svgShape"></stop><stop offset="1" stop-opacity="0" stop-color="#000000" class="stopColor000000 svgShape"></stop></linearGradient><linearGradient id="a" x1="353.61" x2="377.77" y1="19.52" y2="34.07" gradientUnits="userSpaceOnUse"><stop offset="0" stop-color="#ecc4d7" class="stopColorecc4d7 svgShape"></stop><stop offset=".83" stop-color="#f2eac9" class="stopColorf2eac9 svgShape"></stop></linearGradient><linearGradient id="f" x1="350.92" x2="373.33" y1="42.48" y2="42.48" xlink:href="#a"></linearGradient><linearGradient id="g" x1="334.34" x2="394.08" y1="90.8" y2="70.52" xlink:href="#b"></linearGradient><linearGradient id="h" x1="480.82" x2="499.3" y1="118.27" y2="118.27" xlink:href="#a"></linearGradient><linearGradient id="d" x1="358.09" x2="357.73" y1="300.15" y2="371.61" gradientUnits="userSpaceOnUse"><stop offset="0" stop-color="#000000" class="stopColor000000 svgShape"></stop><stop offset=".17" stop-opacity=".73" stop-color="#000000" class="stopColor000000 svgShape"></stop><stop offset=".29" stop-opacity=".36" stop-color="#000000" class="stopColor000000 svgShape"></stop><stop offset="1" stop-opacity="0" stop-color="#000000" class="stopColor000000 svgShape"></stop></linearGradient><linearGradient id="i" x1="509.96" x2="505.95" y1="304.83" y2="366.81" xlink:href="#c"></linearGradient><linearGradient id="j" x1="244.52" x2="244.74" y1="322.83" y2="335.57" xlink:href="#d"></linearGradient><linearGradient id="b" x1="358.29" x2="391.52" y1="31.45" y2="31.45" gradientUnits="userSpaceOnUse"><stop offset="0" stop-color="#000000" class="stopColor000000 svgShape"></stop><stop offset=".08" stop-opacity=".81" stop-color="#000000" class="stopColor000000 svgShape"></stop><stop offset="1" stop-opacity="0" stop-color="#000000" class="stopColor000000 svgShape"></stop></linearGradient><linearGradient id="l" x1="522.14" x2="517.4" y1="312.05" y2="365.64" gradientTransform="rotate(-180 520.86 330.205)" xlink:href="#d"></linearGradient><linearGradient id="m" x1="241.66" x2="244.99" y1="434.35" y2="481.65" xlink:href="#d"></linearGradient><linearGradient id="n" x1="214.17" x2="194.95" y1="392.37" y2="537.98" xlink:href="#d"></linearGradient><linearGradient id="o" x1="284.7" x2="265.48" y1="401.68" y2="547.29" xlink:href="#d"></linearGradient><linearGradient id="p" x1="366.12" x2="409.36" y1="418.93" y2="473.25" gradientUnits="userSpaceOnUse"><stop offset="0" stop-color="#000000" class="stopColor000000 svgShape"></stop><stop offset=".17" stop-opacity=".73" stop-color="#000000" class="stopColor000000 svgShape"></stop><stop offset=".26" stop-opacity=".55" stop-color="#000000" class="stopColor000000 svgShape"></stop><stop offset="1" stop-opacity="0" stop-color="#000000" class="stopColor000000 svgShape"></stop></linearGradient><linearGradient id="q" x1="459.59" x2="458.48" y1="412.11" y2="483.8" xlink:href="#d"></linearGradient><linearGradient id="r" x1="327.32" x2="337.23" y1="28.48" y2="28.48" xlink:href="#a"></linearGradient><linearGradient id="s" x1="307.63" x2="443.93" y1="51.81" y2="26.94" gradientUnits="userSpaceOnUse"><stop offset=".01" stop-color="#ffffff" class="stopColorfff svgShape"></stop><stop offset=".07" stop-color="#ffffff" stop-opacity=".87" class="stopColorfff svgShape"></stop><stop offset=".17" stop-color="#ffffff" stop-opacity=".67" class="stopColorfff svgShape"></stop><stop offset=".27" stop-color="#ffffff" stop-opacity=".49" class="stopColorfff svgShape"></stop><stop offset=".37" stop-color="#ffffff" stop-opacity=".34" class="stopColorfff svgShape"></stop><stop offset=".48" stop-color="#ffffff" stop-opacity=".21" class="stopColorfff svgShape"></stop><stop offset=".59" stop-color="#ffffff" stop-opacity=".12" class="stopColorfff svgShape"></stop><stop offset=".7" stop-color="#ffffff" stop-opacity=".05" class="stopColorfff svgShape"></stop><stop offset=".83" stop-color="#ffffff" stop-opacity=".01" class="stopColorfff svgShape"></stop><stop offset=".99" stop-color="#ffffff" stop-opacity="0" class="stopColorfff svgShape"></stop></linearGradient><linearGradient id="t" x1="355.49" x2="331.59" y1="33.67" y2="61.45" xlink:href="#b"></linearGradient></defs><path fill="#1a83ff" d="M344,46.71c-15.92,14.18-27.37,32.78-43.09,47.18-18.84,17.25-42.81,27.62-64.39,41.3S194.42,168,189.64,193.06c-8.42,44.2,33.35,80.32,50.76,121.81,26.85,64-4.49,145,33.91,202.83,31.29,47.08,94.95,57.62,151.31,62,44.67,3.5,97.41,2.31,123.79-33.91,24.7-33.92,13.34-81.3,22.83-122.17,7.87-33.88,30.61-65.15,27.49-99.79-5.11-56.69-74.5-87.12-90.05-141.88-12.22-43,11.57-92.56-8.77-132.39C473-5.16,381.9,12.93,344,46.71Z" opacity=".18" transform="translate(-188.53)" class="color68e1fd svgShape"></path><path fill="url(#e)" d="M271.36,548.35c-3.39,5-.62,13.85,5.41,13.6l-45.13,25.93c9,7.76,22,8.36,33.91,8.53Q449.32,599.1,633,589.5c5-7.24-1.83-17.14-9.65-21.18s-17.28-5.78-23-12.48c-3.27-3.85-4.89-9-8.42-12.58C585.83,537,576,536.8,567.29,537c-56.83,1.45-113.66,3.09-170.49,4.62C370.25,542.36,289,522.33,271.36,548.35Z" opacity=".19" transform="translate(-188.53)"></path><path fill="#282c34" d="M412.63,87.83S436.22,66,447.92,63.08s46.71,49.64,46.71,49.64l-5.39,3.93L448.7,88.22S404.93,137.85,382,121.73,412.63,87.83,412.63,87.83Z" transform="translate(-188.53)" class="color25233a svgShape"></path><path fill="#1a83ff" d="M367.91,7.79S374.82,3.84,376.8,5s9,53.1,9,53.1L352.54,45.29Z" transform="translate(-188.53)" class="color68e1fd svgShape"></path><path fill="url(#b)" d="M367.91,7.79S374.82,3.84,376.8,5s9,53.1,9,53.1L352.54,45.29Z" transform="translate(-188.53)"></path><rect width="266.39" height="429.89" x="109.37" y="125.02" fill="#1a83ff" rx="24.47" class="color68e1fd svgShape"></rect><rect width="266.39" height="429.89" x="109.37" y="125.02" fill="url(#c)" rx="24.47"></rect><path fill="#1a83ff" d="M551.54,161.37V505.84a21.44,21.44,0,0,1-.59,5A22.11,22.11,0,0,1,529.41,528H332.78a22.13,22.13,0,0,1-22.13-22.13V161.37a22.13,22.13,0,0,1,22.13-22.13H529.41A22.13,22.13,0,0,1,551.54,161.37Z" transform="translate(-188.53)" class="color68e1fd svgShape"></path><path fill="#1a83ff" d="M551.54,161.37V505.84a21.44,21.44,0,0,1-.59,5L377.4,525.58a22.14,22.14,0,0,1-23.92-20.19L324.4,162.16a22.12,22.12,0,0,1,15.22-22.92H529.41A22.13,22.13,0,0,1,551.54,161.37Z" transform="translate(-188.53)" class="color68e1fd svgShape"></path><rect width="201.45" height="89.78" x="143.91" y="283.99" fill="#ffffff" rx="18.8" class="colorfff svgShape"></rect><rect width="15.48" height="56.5" x="500.64" y="301" fill="#1a83ff" rx="6.69" transform="rotate(180 414.115 329.25)" class="color68e1fd svgShape"></rect><rect width="201.45" height="89.78" x="138.93" y="401.29" fill="#ffffff" rx="18.8" class="colorfff svgShape"></rect><path fill="url(#a)" d="M364.74,4.49s3.89,2.88,4.3,6c.65,5,2.87,5.16,5.53,6.59,1.72.92-.59,4.45-.59,4.45s3.76,6.1,2.59,10.52-9.2,10.38-23.44,7.14S336,26.74,339.42,19.85,349.79,4.08,364.74,4.49Z" transform="translate(-188.53)"></path><path fill="#3f3d56" d="M365.92,3.81c-.2-.3.78,1.33-2.92,1-1.43-.13-4.83,1.38-6.5,4.31-2.73,4.8-3.84,2.34-5.82,6s-2.41,5.65-.3,9.23c.77,1.3,1.82,2.51,2.09,4-1.15-.33-1.75-1.63-2.82-2.12a2.81,2.81,0,0,0-3.54,1.6,4.55,4.55,0,0,0,.58,4.12,12.77,12.77,0,0,0,3.07,3,14.53,14.53,0,0,1,3.14,3c.26.37.49.88.23,1.26a1.18,1.18,0,0,1-.81.39,12.53,12.53,0,0,1-7-1.22,22.38,22.38,0,0,1-12.83-21.44,8.33,8.33,0,0,1,.65-3,9.42,9.42,0,0,1,2-2.57A43.05,43.05,0,0,1,353.81.67c2.42-.66,5.09-1.09,7.35,0s3.67,1.11,4.76,3.17" transform="translate(-188.53)" class="color3f3d56 svgShape"></path><path fill="url(#f)" d="M350.92,38.6l2.85,7s2.86,4.56,12.15,3.57,7.21-2.06,7.21-2.06-4.7-.26-7.84-7.92S350.92,38.6,350.92,38.6Z" transform="translate(-188.53)"></path><path fill="#1a83ff" d="M396.7,116.62c-9.23,3.23-19.63,2-25.17.89-2.48-.48-4-.93-4-.93s-44.43-58.69-15-71.29c0,0,3-1.06,14.42.32s17.61,9.74,18.81,12.49,3.31,18.51,3.31,18.51l12.1,13.51S410.08,112,396.7,116.62Z" transform="translate(-188.53)" class="color68e1fd svgShape"></path><path fill="url(#g)" d="M376.13,102.06l-4.6,15.45c-2.48-.48-4-.93-4-.93s-44.43-58.69-15-71.29l8.24,24s-5.06,6.25,5.15,19.51Z" transform="translate(-188.53)"></path><path fill="#3f3d56" d="M401.18,90.12s23.59-21.83,35.28-24.75,58.17,47.35,58.17,47.35l-16.85,6.22L437.24,90.51S397.5,138,374.54,121.87,401.18,90.12,401.18,90.12Z" transform="translate(-188.53)" class="color3f3d56 svgShape"></path><path fill="url(#h)" d="M480.82,117.81l5.43,5s11.11,2.82,12.76-.93-4.38-9.15-4.38-9.15Z" transform="translate(-188.53)"></path><path fill="#282c34" d="M480.82,120.07s12.83-5.74,16.73-5.94,21.63,1.75,24.94,5.46a4.85,4.85,0,0,1,1,5.43H480.82Z" transform="translate(-188.53)" class="color25233a svgShape"></path><rect width="201.45" height="80.87" x="143.91" y="167.7" fill="#ffffff" rx="15.3" class="colorfff svgShape"></rect><rect width="141.72" height="11.29" x="173.38" y="323.61" fill="#1a83ff" class="color68e1fd svgShape"></rect><path fill="#1a83ff" d="M159.66,313h2.22a0,0,0,0,1,0,0v34.33a0,0,0,0,1,0,0h-2.22a7.66,7.66,0,0,1-7.66-7.66v-19A7.66,7.66,0,0,1,159.66,313Z" class="color68e1fd svgShape"></path><rect width="15.48" height="56.5" x="161.67" y="301" fill="#1a83ff" rx="6.69" class="color68e1fd svgShape"></rect><path fill="url(#d)" d="M365.68,307.7v43.11A6.69,6.69,0,0,1,359,357.5H356.9a6.69,6.69,0,0,1-6.69-6.69V307.7a6.69,6.69,0,0,1,6.69-6.7H359A6.69,6.69,0,0,1,365.68,307.7Z" transform="translate(-188.53)"></path><path fill="url(#i)" d="M516.12,307.7v43.11a6.7,6.7,0,0,1-6.69,6.69h-2.09a6.7,6.7,0,0,1-6.7-6.69V307.7a6.7,6.7,0,0,1,6.7-6.7h2.09A6.7,6.7,0,0,1,516.12,307.7Z" transform="translate(-188.53)"></path><path fill="#1a83ff" d="M523.58,313h2.22a0,0,0,0,1,0,0v34.33a0,0,0,0,1,0,0h-2.22a7.66,7.66,0,0,1-7.66-7.66v-19A7.66,7.66,0,0,1,523.58,313Z" transform="rotate(180 426.59 330.205)" class="color68e1fd svgShape"></path><rect width="134.96" height="11.28" x="177.15" y="323.61" fill="url(#j)"></rect><path fill="url(#k)" d="M159.66,313h2.22a0,0,0,0,1,0,0v34.33a0,0,0,0,1,0,0h-2.22a7.66,7.66,0,0,1-7.66-7.66v-19A7.66,7.66,0,0,1,159.66,313Z"></path><path fill="url(#l)" d="M523.58,313h2.22a0,0,0,0,1,0,0v34.33a0,0,0,0,1,0,0h-2.22a7.66,7.66,0,0,1-7.66-7.66v-19A7.66,7.66,0,0,1,523.58,313Z" transform="rotate(180 426.59 330.205)"></path><rect width="39.33" height="11.29" x="222.99" y="442.78" fill="#1a83ff" class="color68e1fd svgShape"></rect><rect width="32.43" height="46.8" x="190.56" y="425.03" fill="#1a83ff" rx="9.26" class="color68e1fd svgShape"></rect><rect width="32.43" height="46.8" x="262.31" y="425.02" fill="#1a83ff" rx="9.26" class="color68e1fd svgShape"></rect><path fill="#1a83ff" d="M395.3 425v46.79h-6.95a9.25 9.25 0 01-9.26-9.26V434.29a9.25 9.25 0 019.26-9.26zM467.06 425v46.79h-6.95a9.25 9.25 0 01-9.26-9.26V434.29a9.25 9.25 0 019.26-9.26z" transform="translate(-188.53)" class="color68e1fd svgShape"></path><rect width="39.33" height="11.29" x="222.99" y="442.78" fill="url(#m)"></rect><rect width="32.43" height="46.8" x="190.56" y="425.03" fill="url(#n)" rx="9.26"></rect><rect width="32.43" height="46.8" x="262.31" y="425.02" fill="url(#o)" rx="9.26"></rect><path fill="url(#p)" d="M395.3,425v46.79h-6.95a9.25,9.25,0,0,1-9.26-9.26V434.29a9.25,9.25,0,0,1,9.26-9.26Z" transform="translate(-188.53)"></path><path fill="url(#q)" d="M467.06,425v46.79h-6.95a9.25,9.25,0,0,1-9.26-9.26V434.29a9.25,9.25,0,0,1,9.26-9.26Z" transform="translate(-188.53)"></path><path fill="url(#r)" d="M327.44,25.68a8.2,8.2,0,0,0,.67,4.77,7,7,0,0,0,2.57,3.34,5.9,5.9,0,0,0,6.05-.2,1,1,0,0,0,.46-.44c.14-.35-.11-.73-.34-1l-2.91-3.74c-1.34-1.72-2.24-3.57-3.42-5.35-.62-.95-1-.72-1.83.14A5.16,5.16,0,0,0,327.44,25.68Z" transform="translate(-188.53)"></path><path fill="#1a83ff" d="M369.16,58.1c-.79,10.95-18.88,15.76-18.88,15.76C341.4,64.51,348,53.72,348,53.72v-.16l-.33-5.39L346.9,35.4l-.2-3.35v-.11l-7.12,2.56s-4.82-1.69-5.64-2.21-2.56-3.38-4.12-6.93,3.35-5.51,3.35-5.51,14.31-3.15,20.61-6a12.18,12.18,0,0,1,11.52,1S369.94,47.17,369.16,58.1Z" transform="translate(-188.53)" class="color68e1fd svgShape"></path><path fill="url(#s)" d="M369.16,58.1c-.79,10.95-18.88,15.76-18.88,15.76C341.4,64.51,348,53.72,348,53.72v-.16l-.33-5.39L346.9,35.4l-.2-3.35v-.11l-7.12,2.56s-4.82-1.69-5.64-2.21-2.56-3.38-4.12-6.93,3.35-5.51,3.35-5.51,14.31-3.15,20.61-6a12.18,12.18,0,0,1,11.52,1S369.94,47.17,369.16,58.1Z" transform="translate(-188.53)"></path><path fill="url(#t)" d="M353,44.46a16.43,16.43,0,0,1-1.16,4.76c-.95,2.12-2.25,2.84-3.87,4.5.15-.25.12-.27,0-.16l-.33-5.39a1.54,1.54,0,0,1,.08-.19c.9-2.22-.14-4.8-.31-7.2-.14-1.79-.32-3.58-.53-5.38l-.21-1.62c-.13-1-.32-1.37,0-1.73a2.57,2.57,0,0,1,.72-.45,8.16,8.16,0,0,1,3.4-.47,2,2,0,0,1,1.56.53,2.18,2.18,0,0,1,.38,1A36.56,36.56,0,0,1,353,44.46Z" transform="translate(-188.53)"></path><path fill="#1a83ff" d="M311.54 22.87c.12 5.13 2.64 9.9 5.66 14.05a4.36 4.36 0 011 2c.18 1.42-1 2.59-1.93 3.69A15.87 15.87 0 00313 53.9a32.88 32.88 0 003.41 11.51A71.72 71.72 0 00333 87.9a7.65 7.65 0 012.22 2.72 2.45 2.45 0 01-.92 3.08c-1.2.56-2.54-.32-3.54-1.18a70.69 70.69 0 01-21.64-33.87c-1.28-4.49-2.06-9.51.08-13.66a17 17 0 001.94-3.91c.68-3.06-1.7-5.85-3.13-8.64a15.63 15.63 0 01-.37-13.25c1-2.16 5-8.52 7.91-6.65C313.55 15.89 311.45 18.59 311.54 22.87zM290.16 31.52c.59 5.09 3.55 9.61 6.95 13.45a4.74 4.74 0 011.19 1.89c.31 1.4-.77 2.67-1.59 3.85a15.88 15.88 0 00-2.2 11.56A32.73 32.73 0 00299 73.41a71.63 71.63 0 0018.63 20.86 7.73 7.73 0 012.47 2.49 2.46 2.46 0 01-.64 3.16c-1.13.67-2.56-.09-3.63-.85a70.67 70.67 0 01-24.7-31.71c-1.69-4.35-2.94-9.27-1.19-13.6a16.68 16.68 0 001.56-4.07c.39-3.12-2.23-5.67-3.91-8.32A15.63 15.63 0 01286 28.22c.76-2.25 4.19-8.95 7.26-7.36C291.51 24.38 289.67 27.27 290.16 31.52z" opacity=".47" transform="translate(-188.53)" class="color68e1fd svgShape"></path><path fill="#1a83ff" d="M386.66 191.41s-15.21 17.92-12.08 24.17 31.51 5.94 31.51 5.94l6 27h40.63L459 222s27.29 0 29-8.34-14-25-14-25-.84-6-3.55-5.62-7.91.62-8.75 3.54 3.21 5.21 3.21 5.21-2.12 1.17-1.5 2 5.18 1 5.18 1 2.5 12.42 5 13.25c0 0-14.87-9.36-26.81-5.61 0 0-6.95 5.61-5.91-.07.3-1.64 1.46-7.08 1.46-7.08s3.75-2.29 3.75-3.75-2.08-1.46-2.71-.83 1.46-6.09-2.92-7.73-13.12-3.52-16.87 2.31-.11 8-3.23 9.69l1.77 2.08s-1.23 4.55.31 5.21c4.07 1.75 2.55 2.77.42 3.33a5.74 5.74 0 01-5.33-1.32c-1.74-1.6-8.93-3.42-13.8-1.42-12.64 5.19-17.54 5.87-17.54 5.87s5.94-1.15 8.23-10.32 5.31-12.29 5.31-12.29 3.86-.41 3.86-1-1.77-1.87-1.77-1.87 1.35-3.41-.59-4.38a38.44 38.44 0 00-6.12-1.94s-2.38.55-2.78 4.72S386.66 191.41 386.66 191.41zM447.5 546.18H422.16a5.66 5.66 0 01-5.66-5.67h0a5.66 5.66 0 015.66-5.66H447.5a5.66 5.66 0 015.66 5.66h0A5.66 5.66 0 01447.5 546.18z" transform="translate(-188.53)" class="color68e1fd svgShape"></path></svg></g></svg>